/* XPM */
static char *greendragon[] = {
/* columns rows colors chars-per-pixel */
"64 64 242 2 ",
"   c #1C1310",
".  c #160F0D",
"X  c #20120F",
"o  c #241511",
"O  c #291712",
"+  c #261814",
"@  c #2C1B15",
"#  c #2E1E18",
"$  c #341E17",
"%  c #331F18",
"&  c #391F17",
"*  c #2D271A",
"=  c #35221A",
"-  c #3C241B",
";  c #3C2A1E",
":  c #34281A",
">  c #2D361C",
",  c #35341C",
"<  c #3C321E",
"1  c #333B1C",
"2  c #3B3C1E",
"3  c #3E2A21",
"4  c #372A20",
"5  c #3C3322",
"6  c #3C3B22",
"7  c #353422",
"8  c #293621",
"9  c #41261C",
"0  c #43291E",
"q  c #4A2B1F",
"w  c #542B1F",
"e  c #44301E",
"r  c #48381B",
"t  c #442C22",
"y  c #4A2E22",
"u  c #512E21",
"i  c #443323",
"p  c #4C3125",
"a  c #413A25",
"s  c #4B3A24",
"d  c #4E3429",
"f  c #4C3A2A",
"g  c #443B28",
"h  c #533325",
"j  c #5A3525",
"k  c #543C24",
"l  c #5C3926",
"z  c #533629",
"x  c #59362A",
"c  c #55392B",
"v  c #5C3B2B",
"b  c #5B3E31",
"n  c #633626",
"m  c #6A3425",
"M  c #613927",
"N  c #623D2B",
"B  c #693E2B",
"V  c #723326",
"C  c #743B2A",
"Z  c #623B32",
"A  c #683C35",
"S  c #6E2C20",
"D  c #3A451E",
"F  c #35491E",
"G  c #33551F",
"H  c #37591F",
"J  c #2D511C",
"K  c #36631F",
"L  c #3C4323",
"P  c #364B21",
"I  c #3C4B23",
"U  c #3D492A",
"Y  c #365422",
"T  c #3A5225",
"R  c #365D22",
"E  c #3B5C23",
"W  c #3C5828",
"Q  c #2A4422",
"!  c #366322",
"~  c #3B6424",
"^  c #366922",
"/  c #3B6C24",
"(  c #3E6C28",
")  c #396528",
"_  c #3C7325",
"`  c #3D7925",
"'  c #3D7428",
"]  c #3E7928",
"[  c #367022",
"{  c #544C1B",
"}  c #5C511B",
"|  c #4B441E",
" . c #655A1F",
".. c #5F601B",
"X. c #6C691E",
"o. c #434324",
"O. c #434B23",
"+. c #494728",
"@. c #5B4226",
"#. c #5E412C",
"$. c #56492A",
"%. c #425424",
"&. c #415D26",
"*. c #445B2A",
"=. c #485228",
"-. c #575B2E",
";. c #494E34",
":. c #5D4231",
">. c #544B38",
",. c #4B5532",
"<. c #565731",
"1. c #64412E",
"2. c #6A432E",
"3. c #654B2C",
"4. c #6C4B2D",
"5. c #634826",
"6. c #74432E",
"7. c #78462E",
"8. c #6A542A",
"9. c #74542F",
"0. c #644331",
"q. c #6B4632",
"w. c #6D4A34",
"e. c #6D4139",
"r. c #684A38",
"t. c #724631",
"y. c #724B34",
"u. c #744D39",
"i. c #7A4A38",
"p. c #69543C",
"a. c #745135",
"s. c #7A5335",
"d. c #7C5B35",
"f. c #74523B",
"g. c #7C543A",
"h. c #795938",
"j. c #416325",
"k. c #416D27",
"l. c #42662A",
"z. c #436C2A",
"x. c #4A6B2C",
"c. c #4A6928",
"v. c #566829",
"b. c #437326",
"n. c #427B26",
"m. c #44732A",
"M. c #4A742C",
"N. c #457C2A",
"B. c #4A7C2C",
"V. c #4C7826",
"C. c #54792B",
"Z. c #4C6D34",
"A. c #4B6634",
"S. c #576836",
"D. c #4C7B32",
"F. c #557834",
"G. c #646626",
"H. c #697624",
"J. c #7A7425",
"K. c #636735",
"L. c #6C7739",
"P. c #726625",
"I. c #5E5941",
"U. c #7C4C42",
"Y. c #7A5742",
"T. c #5A6345",
"R. c #5E7853",
"E. c #7E6046",
"W. c #87432E",
"Q. c #844B38",
"!. c #825D34",
"~. c #84553A",
"^. c #835A3D",
"/. c #8B5B3C",
"(. c #865439",
"). c #935138",
"_. c #86603B",
"`. c #8A633A",
"'. c #946B3C",
"]. c #95673D",
"[. c #8F7535",
"{. c #A3753E",
"}. c #844D43",
"|. c #845343",
" X c #8A5446",
".X c #865A45",
"XX c #965949",
"oX c #995E52",
"OX c #A15F4E",
"+X c #876342",
"@X c #946944",
"#X c #9C6349",
"$X c #986A47",
"%X c #9B7442",
"&X c #9C6A53",
"*X c #A56A47",
"=X c #A87746",
"-X c #B47D47",
";X c #AE6D4F",
":X c #3D8126",
">X c #418327",
",X c #45832A",
"<X c #4B842C",
"1X c #458A2A",
"2X c #4B8B2C",
"3X c #468727",
"4X c #52842D",
"5X c #528A2E",
"6X c #5B8C29",
"7X c #4B922D",
"8X c #4A942C",
"9X c #57962E",
"0X c #4E8C30",
"qX c #4C8130",
"wX c #538532",
"eX c #538B31",
"rX c #598835",
"tX c #4E9131",
"yX c #549233",
"uX c #788927",
"iX c #66962B",
"pX c #799829",
"aX c #778739",
"sX c #739331",
"dX c #6C8C2E",
"fX c #7E9945",
"gX c #868426",
"hX c #989928",
"jX c #869327",
"kX c #94A528",
"lX c #A6A727",
"zX c #B2B526",
"xX c #879546",
"cX c #878F49",
"vX c #B88348",
"bX c #AE8248",
"nX c #C3894B",
"mX c #C99254",
"MX c #DB9B55",
"NX c #CE934E",
"BX c #DEA054",
"VX c #E6A455",
/* pixels */
"t f c c l c l N l l l N N N N l 1.q.l l l l l h h c p p p c p p p p t t t t t t i t t t p t t t p y h p p p q t t t t q q - q q ",
"h h h h u h h h u h h M M u l N q.1.N q.q.l l N h h h p p h c h h c t p t - = t d t p d y t y t t t q t q q q q y q q q q 9 9 y ",
"l l l l l h u l h h l N N M l 2.w.q.2.q.q.#.l c c 1.1.l h h c c :.q.c c f c c d c c c :.c l q.#.1.q.N l l l z y l h l l h h y h ",
"2.2.N h l N t.2.7.7.2.N 2.t.i.t.w.i.s.Q.t.q.t.t.2.1.l l #.c :.:.a.c :.q.q.y.l c :.l q.q.q.q.q.q.q.q.q.q.w.].`.9.+Xz y l l h u h ",
"t.2.2.1.2.Q./.(.g..X&X&X$X&X.X.X^.^.i.g.t.t.t.t.w.w.w.q.q.l :._.=Xd.w.q.1.q.q.w.w.q.w.t.t.q.w.w.t.t.@XvXNXvX=X=X%X^.b l N N l u ",
"a.g.t.q.t.(.@X/.-XBXmXnXNXBXNXvX&X$X.XY.g.f.t.w.w.t.t.w.w.q._.$X%X+Xy.q.w.w.w.w.w.f.w.t.t.q.q.w.f.=XnX-XXX X X XXX*X^.q.l l l h ",
"f.w.w.1.Q.Q.].MXNXMXnXOX#X;X-X-XnXnX=X.X.Xg.t.t.t.t.t.t.w.a.vX(.].=Xy.q.q.t.q.w.w.w.q.w.q.l #.q.vXvX#X Xt.q.q.w.q. X*Xf.l N l x ",
"f.f.q.t 2.(.VXVX;X*X#X.X(.^.(.|.g.^.{.vX+XY.t.g.^.g.g.w.^.vX^.Q.(.=Xd.f.u.a.t.t.w.w.q.q.q.w.a.=XvX#X|.q.u.q.|.w.N  X*X+X1.q.N l ",
"Y.Y.f.1.l $XBX*XoX~.i.i.^.(.(.(.(.t.2.t.^.@XY.f.f.w.g.=X-Xg.q.Q.).^.=X@Xf.u.q.q.w.w.t.u.t.=XnX=X|.u.t.w.u.|.i.q.l }.*Xs.q.q.1.h ",
"q.q.q.#.l {.`. Xq.1.2.q.N h 1.q.1.l h h h l t.s.h._.!.4.l z h n l z z 2.h.a.l z c c c w.h.9.1.x h p c l z e.z h x e.t.p p z h y ",
"q.#.l l c '.}.U.q.N q.u.l h x h h y p q t t y y p y p y l p u u - y - t t @.8.1.3.$.3.@.p t q t - - t t t Z A z e.Q.N q t y t q ",
"l l l l c `.XXq.x l l U.Z y p p y q t - q t t q t - - y l u h y y h c y l y q x @.x q ; q t t t t t t q q t x A t.1.t t t t q 9 ",
"c l l l z !.@XU.h l l i.x q t p q p p t q - = @ - t t y h y t y t t q l u p 9 t q q - - q t q t - ; t t y t p t c y y y p p y t ",
"l q.N l h h '. Xi.A i.|.l %.9 p y h y y = o @ - t t p y t t t y p h y y p p p p p y y y t t 3 t 3 t t t y t p p p p p h p p y t ",
"c z h y y y l _.q.t.x h e F 9 y h y y - + = t y t p p h h p h p y y t t t t t 3 6 L I Y P P Y Y Y W Y Y L t y t t t y y y y p y ",
"t p h y q q t h 4.l y ; k.6 y q t q - # + ; t - t - t p y t y y y p t - : P ~ ] ` / ` / ~ ^ [ / Y F I D L I 3 y p p y y p t p y ",
"l h y y q 9 q t q 9 - F , 9 q q q 9 % o = t t t q t t p y t t t = , P ~ / E / ` ` ' ` ` ` ` G @ = t q t t t t t t t y y p y y t ",
"y y q 9 q q q p y 6 z.F q y t 3 t t q   - t t p t t p d c d p 5 l.m.M.m.N.N.m.m.N.N.B.N.N.k.z.l.*.=.5 3 d d p t z z z z d z p d ",
"- y q q y q q q I B.~ , ; < K.L.+.- - + - t t t p p d d p a *.B.B.B.B.B.m.z.m.m.N.m.l.N.N.qX<X<X>X>XqXF.+.p c z z c c c z z z z ",
"y h c l h h ; E ~ N.m./ E k.C.-.: ; 3 = 3 t t t z d i - I m.m.B.x.x.M.m.N.B.<X<X>X>X>X>X>X>X<XN.n.B.>X>X1XD.+.d z z c z c l z l ",
"y p q f p =.%.~ E H / c.V./ ` N.T +.-.<.g p p p p 3 = E qX<XM.M.D.D.B.>X<X>X>X>X>X>X>X>X<X<X1XD.+.5 L %.m.>X>X*.3 d z t t t t ; ",
"h p K.p.; =.5.~ Y H c.r < | G.<X>XB.aXK.$.t t y 3 < z.>XN.M.>X>X<XB.<X<X<X<X<X>X>X>X>XN.n.` m.z.( U 4 3 - 5 L E m.U t p z p z p ",
"h q +.F.j.m.N.~ &.b./ t p q = ..V.~ / +.p t p = L m.N.N.B.<X>XB.>XB.>Xb./ ( z.z.z.( ( N.<X>X>X<X>X>X<XU d c t t 6 z.L d c p y t ",
"l h D <X1XF.,.m -.<X2 t z t 9 - { 6X>XN.+.i = F N.N.<X>Xn.~ E l.x.z.z.m.N.B.N.>XN.>XN.N.b.6 6 Y ~ b.N.N.5 d t d d t 5 t d p p p ",
"l x *.Z.S.T.t.p *.x.t q y p y y = H.D.D.L.cXi , 6 x.z.l.*.Z.M.x.x.M.m.B.D.D.M.m.z.~ ( E l.6 t p t a Y j.z.g p p p p p y y p p d ",
"l N #.T.I.n V ;.<X%.h h x l l l y } iX1XeX-.$.y ; M.1X1X<X<X<X1X<X<X<X<X1X1XO.; 3 t 6 E b.1XU d p z h t 5 z.i p p z z p p t p z ",
"q.w.w.0.q.V p ;.<Xi y h l l l h h : dX1X1Xi h y - I 1X>XN.>X<X<X>X<X<X4X4Xx.- z l l z p p o.~ ,.z z h p y t - t p 3 z z z h p z ",
"q.w.q.u.w.S i Z.k.*.q h h l N N l r pX1X1XK.:.z z ; >X3X1X1X1X<X1X<X1XeXeXF.i 1.l q.1.l l l t : z l z h y - 5 6 3 Y 6 z l l x x ",
"l N N l l u V p 9 O.p q h l N 1.q gXiX1X1XxXxXl N ; j.1X1X1X7X6X1X1X<X<XwXa p q.q.q.q.q.b l l h q.q.d 5 j.x.*.Y x.z.D.t l N N N ",
"q.N l 1.q.m m l h h l h l q.N N } zX1X1X4XL.xXp.1.l %.7X1X1X4X4X1X6XeX4XwXz b q.t.q.q.q.q.b 1.N q.d %.B.6 t t p z.<X<X=.c c l 1.",
"q.N l l N m m l l y p l h l l - lXkX7X1XE p p s l l +.1XyX6XwXeXeXwXwXeX<Xi q.N q.:.q.:.:.q.:.q.q.o.<XL p 1.l q.p d +.A.g q.q.q.",
"l l 1.q.l q.w.N l l y h l l q { zX9X7X<X2 l z l N l c 4X7XyXeXtXtXyXwX1Xo.c q.t $.i b :.q.l c b c x.F.i q.q.l q.q.q.q.c d q.q.q.",
"l h h l d q.l z p z p y y y = } v.E E F = - t y y y - 1 b.` b.~ ~ E &.E = y - +.L.t t t ; t t - - E ~ * t t t p p d d t t t t t ",
"p h p p l c q.l p t p p y q @ gX/ ~ / ~ L.-.a t - 3 - Q R ! ! / / E R G @ # @ v.v.* + : =.o.= = % > Y Y 7 3 t - = = % = - t t t ",
"z c h c z c z p p p p t p t r gX! ` ( / aX=.< 3 - - = G ~ / Y R K ! ! > F ~ ~ ! R Y E &.=.i - - - = Y / ) Q > * = - 3 3 ; - - = ",
"1.q.l l z z t p i - t p p - } kX>Xm.` ' O.- t q 3 - 1 ! G Y E R ^ / / ! ! ! R ! R G K K ~ * = = = = * > E ` ] / ` R * = = # % # ",
"p c c l q.#.:.t =   + y h t } gXz.n.N.` 7 q t s t = Y ! / ! ! / Y R ~ ! ^ / / ` / / / ~ E ! , o.3 3 - - = 1 1 1 P E ( 5 t q ; 3 ",
"l l l c l :.q.c =   . = h t r hXm.N.m.` ( K.aXS.t * / / ` ~ / ~ ` [ ^ ` / ` / ! / ~ ~ ~ E ~ ! S.-.i - - t - ; t % * ` ~ t t 3 3 ",
"h h h l l l l c 3 * 8 7 t - @ J.V.` N.` / B.F.; : F ! ! ^ ! / ' ~ / ` ( ` m.` ` / / / / / ` ` ~ ; t t t t t t d - 5 z.( = - - - ",
"x h h l l l q.q.z 6 U m.= 9 @ { C.] ` ` ` ` m.m./ ` ^ ! / ` m.m.` N.` ` ` ` ' m.dXgXJ.uXH.b.` ~ a p t t p p p p t o./ m.= t q - ",
"l l q.w.w.y.y.w.f <X1X>XU p t * uX1X1X0X<X>X1X>X>X>X] >XN.1X>X>X0XwXwXeX<X0XeXdX .; = s J.aXD.D.A.c c l 1.l l l p 6 wXqXp z z l ",
"2.M q.w.w.t.w.q.R.O.N.j.tXA.f - { <XJ ` >X1X>XN.1X1XN.n.1X>X1X1X0XeXrXlX9X1XyXrXf #.l h ; hX1X1XwXxXcX$.l q.1.l <.x.7XN.t l l l ",
"N l l w.q.w.l N c $.Z.; ( >XD.j.` :X' ` 1X>XN.n.>X>X1X>X>X1X>X<X8X6XlXgX2 1X1X1XrX#.q.q.p 8.sX6X6XeXs l l l 0.p +.1X7X%.c l c c ",
"1.l l q.w.w.1.1.q.#.>.c 5 n.>X1X>Xn.b.c.jX6X>X>X1X>X>X>X>X>Xn.6XpXlXJ.; p 1 z.7X7XF.1.q.q.i jXeXeX1XZ.i f xXi o.<X1XH.l #.l l l ",
"N l l l l w.q.1.1.l h h p 6 ` m., ; - $ | G.>Xb.6X6X4X4X6XuXhXhXhX} - h q.z ; z.1XM.c 1.q.p P.iX0X1X1XF.F.sXM.7X1XuXx l c l z c ",
"N N N l 1.q.w.1.1.N l l l h i 1 9 q y q 9 $ H >X<XX.P.J.J.X.X.{ : q h l 1.q.c ~ 1Xx.l l l #.x hX9X1XeX1X1X7X1X1XpX8.l N l l l l ",
"q.w.q.q.a.w.q.2.1.1.l N l l h y h u y h l h D 1XE $ = = : $ q t h l l c l w.c 1X1X+.1.N q.#.1.$.hXsX7X7X9XiXpXH.5.2.1.N N 1.1.l ",
"w.2.N N 2.q.q.q.1.2.N N l l h h h h u l l q n.>XO.q x l l h h h h h 1.h l 1.c <XO.h N q.N q.1.q.1.P.[.gXJ.8.x c w.w.1.1.l 1.l l ",
"1.l N N 1.2.1.; y l l N N N l l l q q o.=.k.<Xj.h N N N N l N N l l l N s Z.F.yX,.q.w.t.q.1.w.q.w.q.1.l 1.q.q.q.t.w.q.q.q.q.1.1.",
"1.l l N p l h h p q l N N N B N N d x.B.b.V.V.O.h l N N N h l l l l 1.N Z.b.b.F.A.T.0.1.q.q.1.w.t.q.q.q.w.q.q.q.q.q.q.q.q.w.u.w.",
"t.l l q h q.q.N 1.q.N 2.2.2.N 2.2.p q ,.2 A.e h l l l u u u h l N N l h >.S.; ;.p l q.1.2.q.q.q.w.q.q.q.q.q.1.q.N l l N 1.1.w.w.",
"t.l M l 1.w.1.q.t.q.N q.t.2.t.7.7.N q p q p u u q u l u y n B x l N B 7.i.q.x l q.w.1.N 2.q.1.N 2.w.t.q.w.q.|.|.Y.Y.N N N N 1.q.",
"t.l 2.N 2.w.l 1.s.g.q.B 7.B 2.2.B B M l u l q q l h q l M 7.m C N B W.B W.q.l N N w.q.1.1.q.1.1.N N 1.q.u.oXQ. X#X-X$X1.N N N l ",
"w.N M N w.2.M *X#XXX}. X|.2.2.N 2.M N l M N N N l l M l n 7.7.W.1.7.C B 7.t.q.1.1.2.w.q.2.w.q.q.2.q.t.w.|. Xt.1.|.OX=XY.1.q.q.1.",
"1.l B N 7.2.(.oXi.q.N l }.t.2.l n l M l M N l l N B N N B 7.n m 7.7.N h h a.(.].`.a.d.+Xf.1.1.q.q.q.w.w. X|.w.q.q.XX=XE.q.q.q.q.",
"; z N h l l /.N l h h y z u y q q 9 q q - l '.'._.4.t.4.1.l y q w w h h 4.h.4.l p c l x h._.f.c c l l l Z q.q.c c Z g.:.z z h h ",
"z l h y q 3.~.l h y q 9 - 9 - - 9 - - - s - - - 9 9 - q q x - $ & 9 p 8.q - t t t - - - ; p #.t.z - t t t t - t - Z h.f t t - - ",
"h l h y p 4.g.Z h y y q q q q 9 9 9 @.h.x = $ $ $ = $ $ $ - x e 9 p 9.p t p p c l p y q p y t 1.`.u.b d t t i z e.@X%X:.t t p y ",
"p l h p y 4.@XU.l h y q q 9 q q l s.'.9.y q q 9 - - : $ - - q 1.#.9.q q p h h p z l p p l z p p l '.$XY.q.q.q.|.%X{.!.c p z p d ",
"t q y p h x =X$XU.e.Z Z Z Z Z w.8.3.s - - - - - - - - - - 9 - q 3.q - - - 9 9 9 t h p y h z p p p y a.'.$X'.'.'.'.a.p h c p p p ",
"h p l h p h 1.{.bX@X^.w.1.h._.8.e q - 9 - - - - - - - - - - 9 - @.- 9 - - - 9 - t y h p c h p p p p t 1.9.9.4.#.p z l :.c d p p ",
"t q t p p h h p l @.5.!.h.4.q q - 9 q q 9 9 9 - $ & $ @ $ $ - - - $ - - - - - - t t t p t t t y p p t y y p p p c d z h z p d t ",
"t i = t p q q q q - q q - 9 - - : - - 9 - - & $ - $ $ & & $ $ $ $ $ $ $ $ - - : - - - t t q 9 t q q q t t t q t p p t t p t t t ",
"@ o o @ o o o O @ @ @ @ @ O O O o o @ o o o X X X o o O o o o o o o @ @ @ @ @ @ @ @ o @ @ + @ @ = - = @ @ @ @ @ @ @ @ @ @ @ @ @ "
};
