/* XPM */
static char *flower[] = {
/* columns rows colors chars-per-pixel */
"64 64 238 2 ",
"   c #1B120F",
".  c #20130F",
"X  c #241510",
"o  c #251912",
"O  c #2B1C13",
"+  c #281914",
"@  c #331F15",
"#  c #2D2015",
"$  c #2E2319",
"%  c #352416",
"&  c #3A2517",
"*  c #342619",
"=  c #3A2618",
"-  c #362A1A",
";  c #3B2C1A",
":  c #382A17",
">  c #3D321C",
",  c #3E3A1D",
"<  c #3D3320",
"1  c #422D1A",
"2  c #43341D",
"3  c #4B341D",
"4  c #443A1E",
"5  c #4B3A1E",
"6  c #433D11",
"7  c #55351E",
"8  c #543A1E",
"9  c #5B3C1D",
"0  c #58371B",
"q  c #532E1B",
"w  c #7D2C1D",
"e  c #742A1C",
"r  c #7A351E",
"t  c #67381D",
"y  c #433621",
"u  c #463A21",
"i  c #4B3D22",
"p  c #4A3621",
"a  c #523D21",
"s  c #573B21",
"d  c #653A20",
"f  c #783821",
"g  c #48431D",
"h  c #5C421E",
"j  c #54431C",
"k  c #5E5A17",
"l  c #62431E",
"z  c #644C1F",
"x  c #6C4A1E",
"c  c #69571D",
"v  c #72581D",
"b  c #6E631B",
"n  c #6F691A",
"m  c #73641C",
"M  c #726C1C",
"N  c #7A6B1E",
"B  c #7B751D",
"V  c #7D791C",
"C  c #76711C",
"Z  c #454321",
"A  c #4D4223",
"S  c #4C4C24",
"D  c #4B4527",
"F  c #524424",
"G  c #5B4323",
"H  c #554A25",
"J  c #5A4C25",
"K  c #544629",
"L  c #554A29",
"P  c #5A4D2A",
"I  c #4C5324",
"U  c #4E5925",
"Y  c #535326",
"T  c #5C5226",
"R  c #545B26",
"E  c #54532A",
"W  c #5D532A",
"Q  c #565C29",
"!  c #5C5B2B",
"~  c #5D5827",
"^  c #5B5B30",
"/  c #644522",
"(  c #6A4521",
")  c #654A23",
"_  c #6B4B23",
"`  c #664B29",
"'  c #724D23",
"]  c #764E28",
"[  c #635325",
"{  c #6C5323",
"}  c #62552C",
"|  c #63592D",
" . c #695D2E",
".. c #685628",
"X. c #735324",
"o. c #7A5424",
"O. c #745B26",
"+. c #7A5C25",
"@. c #795A2A",
"#. c #645630",
"$. c #665931",
"%. c #6A5C31",
"&. c #6D5935",
"*. c #785A30",
"=. c #556226",
"-. c #5B642B",
";. c #5D6C2B",
":. c #5A6726",
">. c #5E7329",
",. c #64642C",
"<. c #6B632D",
"1. c #636B2D",
"2. c #6A682B",
"3. c #766C23",
"4. c #766826",
"5. c #63742C",
"6. c #637B2C",
"7. c #6B7F2A",
"8. c #7D7323",
"9. c #7F7924",
"0. c #777021",
"q. c #6D6232",
"w. c #656731",
"e. c #726533",
"r. c #766635",
"t. c #687831",
"y. c #777734",
"u. c #842E1D",
"i. c #8B2F1C",
"p. c #8B311E",
"a. c #83321E",
"s. c #91321E",
"d. c #99351E",
"f. c #843821",
"g. c #943921",
"h. c #9E411E",
"j. c #827D1D",
"k. c #88791F",
"l. c #835C23",
"z. c #865927",
"x. c #934E29",
"c. c #AA4A26",
"v. c #B44E26",
"b. c #AB562C",
"n. c #B4542B",
"m. c #B35B2D",
"M. c #BB5B2C",
"N. c #BA5529",
"B. c #B35D30",
"V. c #AE5D32",
"C. c #8B6425",
"Z. c #84622C",
"A. c #8B632A",
"S. c #876A27",
"D. c #936C2C",
"F. c #976827",
"G. c #837D23",
"H. c #887525",
"J. c #9C742C",
"K. c #977728",
"L. c #896730",
"P. c #987534",
"I. c #996D31",
"U. c #A6792A",
"Y. c #BA6331",
"T. c #A47931",
"R. c #A8682C",
"E. c #C35C29",
"W. c #C5622E",
"Q. c #C56731",
"!. c #6A852C",
"~. c #6C952D",
"^. c #698631",
"/. c #779635",
"(. c #739131",
"). c #77A731",
"_. c #79B032",
"`. c #85811E",
"'. c #8A851E",
"]. c #8D8A1D",
"[. c #918D1E",
"{. c #95921E",
"}. c #99961F",
"|. c #9D9A1E",
" X c #A09E1F",
".X c #A5A21F",
"XX c #868123",
"oX c #8B8423",
"OX c #8D8921",
"+X c #8A8429",
"@X c #948423",
"#X c #918D22",
"$X c #91842B",
"%X c #928B2A",
"&X c #9B8624",
"*X c #959223",
"=X c #999523",
"-X c #9D9A23",
";X c #96922A",
":X c #9A952A",
">X c #9E992B",
",X c #968B31",
"<X c #9F9833",
"1X c #A38729",
"2X c #A29D24",
"3X c #A29E2B",
"4X c #A7952A",
"5X c #B2992A",
"6X c #A88932",
"7X c #B09133",
"8X c #81B637",
"9X c #8AAE3D",
"0X c #A5A224",
"qX c #A9A624",
"wX c #ADAA24",
"eX c #A6A22A",
"rX c #AAA52A",
"tX c #AEAA2A",
"yX c #B1AE25",
"uX c #B2A32C",
"iX c #B1AE2C",
"pX c #BAAC29",
"aX c #B4B225",
"sX c #B9B625",
"dX c #BBB926",
"fX c #B5B22A",
"gX c #BAB62B",
"hX c #BDBA2A",
"jX c #AEA832",
"kX c #B2AC33",
"lX c #BCB433",
"zX c #B5B230",
"xX c #C0BC26",
"cX c #C0BE2B",
"vX c #86C237",
"bX c #C4C22A",
"nX c #C8C629",
"mX c #C5C231",
/* pixels */
"> i A A K A F H H F H H H H H F H P H L H A F A 5 A 4 4 4 A u u 4 u > y > > > > < > > 2 u 2 2 4 u 4 i u 4 u > 2 > > > > > ; ; > ",
"i 5 5 5 3 5 5 5 5 A F T ! 5 8 F W -.H W W F F H H Y g S i i A i i A Z I u ; - > u > u A Z Z Z u 2 2 ; > u g Z Z A 2 > 2 ; ; ; 2 ",
"F F F F F i 5 5 F Y R :.5.;.H T } ! t.W W H A R U Y H S I S E L ^ -.S A A E D u A A E ! S H L E -.W H Y ;.-.R 4 H 5 H -.R A 2 5 ",
"T J J Y -.5.t.T | 5.^.5.6.~.!.| } <.!.(.1.,.5.,.T H H K L P $.e.W A L W P $.E E ^ Q ! P P P W P W W W W Y R H 4 H A S :.=.g 3 5 ",
"| T T >.!.).vX/.<.2.y.(.).!.,.2.2.r.,.q.,.,.| | } } W W P @.K.,Xr.W } P L W W | ,.! | | $.P } } | | | ! W W P W -.Q R :.:.H a 3 ",
"%.<.| 1.~._.vX8X(.2.r.e.y.2.<.<.q.r.r.r.%.%.| } } %.| } #.P.6XkXP.} W W } } } } } %.| $.$.P W W } W | } | %.| t.;.>.;.5.H F H i ",
"%.$.,.Y ~.8X/.8X9Xy.y.r.<.2.<.e.<.| |  .r.r.| | $.| | |  .T.gXlX6Xr.} J } | W } } W W #.W K H W H W %.| } } ! 6.;.5.;.Y F W :.F ",
"&.q.1.2 :.).vX)./.(.y.2.<.e.<. .r.r. .q.| %.| q.r.q.q.%.P.7XlXcXlXP.| | |  .| | $.W W W W } } $.} } %.W %.W <.6.:.,.T W Y 5.6.F ",
"r.r.y.! P 2.~././.(.<. .r.r.e.r.r.} W } T | | q. .} r.P.7XlXgXlXfX7XZ.} %.} W W } | | | } W W W W } | } %.} } W F P P W 1.t.>.A ",
"P ,.;.Q P W P } T P T } J i J W P F i A A A A A A P @.S.;XG.G.8.G.H.@._ F A A i i a i i i i i i i u A F i i i i i u y i A S S y ",
"L E -.L F L H P P H H F F i F i i 2 u ; > 2 2 2 u _ S.wXaXaX0X-XOXM N 9 3 ; ; ; 2 ; ; * ; y p 2 ; ; ; 2 y G X.8 ; 2 > ; > Z > > ",
"L L L K K F F F A A F A i 2 5 4 2 ; 2 ; ; 2 ; ; 5 8 '.].|.|.-X X.X0XqX:X/ 2 ; ; > ; ; i G ` c [ { _ ` ` c k.z 3 ; ; > > ; > > ; ",
"A K K K A F P F i F F F 3 2 2 4 ; y 2 2 ; - * O 3 @X0XwX0X-X:X:X*X*X[.*Xz a ; > ; 2 p 9 N G.OX*XOX*X*X*X2XO.G 2 y y 2 y i i A 2 ",
"F E ! F i i F H F a i P F 5 2 i 2 i i 2 * X O 2 / *X-X#X-XOX:XOX2XqX2X2XH._ i u a ' H.0X0X2X X*X{.#X*X-XG./ i y y i u i i S 2 > ",
"A i A i 2 2 s G a s 5 i i 1 7 s @._ _ 8 O ; 2 h ' yXwX0X-XwXqX0X0X0X:X-XoX` u i _ @X-X-X:X-X-X0X*X0X|.{.M 8 2 y > 2 2 y Z u u 2 ",
"2 u 5 A 2 2 9 ( o._ / / _ ( ' { 4.c g ; O a i 3 { j.].:X*X*X*X[.:X0X:X-X].h 5 / k.{.{.].XX].{.:X'.-X0X*X{ a 2 2 u u 2 u A 2 2 2 ",
"a p 3 3 2 = 3 [ b c 8 3 9 z m j.'.'.n g j j 9 G N '.{.:X0X|.-X-XOXoX9.OX].8 8 H.-X:X:X:X{.|.].].].[.].].z 3 2 > 2 y y u A 2 2 2 ",
"2 2 2 1 2 2 3 / K.2X#XB -X:X#XG.0.:X[.6 ].OXG / X.*X2X0X3X2X2X-X>X-X;X;X4XO.O.eXrXwX;X-X-XOXoXXXXX+X;X%XS.` y y i i i A D i u i ",
"; 2 2 5 3 1 2 3 X.2X'.b B [.[.|.OXj.V k XXoX-Xc ' -X0X3X3XeX3X>X3X3X;X>X$X' %X:X>X#XG.-XeX3XtXeXrXwXtXwX&X` A i i A A A S L i i ",
"3 i F Y i i > ; 3 &X-X`.B oX'.#X0X[.].`.[.-X-X:Xo.4X0X2X*X*X%X>X;X;X;X;XS.H.rXiXaXwXwXwXqXtXeXrX0XeXaX*XJ.` i i A A A A A Y A F ",
"2 i 5 i i 5 ; ; 1 9 oXj.:X[.|.0X|.*X2X-X2X0X0X#XS.X.8.*X3XrX3XeXeX3XeX2XA.*XwXiXwXwXyX0XrXtXyXtXwXfXsXyXC.F i u y u i y y y Z ; ",
"5 i Y 3 i i u ; 1 0 |.-X|.-X#XqXwX2X-X#X9.9.XX2XrXS.K.-X0X3XtXtXeXeXrX4XZ.rXiXaXwXwX0X0X0X#X#XOXG.9.G.G./ u 2 > 2 y > u i u I y ",
"5 4 A i 2 y i 2 8 ( |.2XaX0X[.0X:XG.OX2X0X|.-X-X2X@Xl.2XrXeX0XeXqX-X0Xl.m 9.XX#XoXXXOX-XrXtXtXtXfXwX0X&X_ A u i u i i i D A u > ",
"i Y H F H W P F F z.#X XwX'.j.G.*XyXwXqX-X:X2X-XqX0XH.@X@X8.4.4.S.e.H.Z.eXrXwXwX0X0X0X0XqXqX-XOX:X:X:XO.i i y u i y u i S S u u ",
"A H -.Y } W P i 5 ] H.G.oX+X+XoX;X>X;X;X;X%XG.oX+X+X4./ G ` ` _ ] ] ' A.%X;X%X;XoXG.G.9.XX;X%X+X*X9._ G u y u u i y u Z Z u u i ",
"F H | 1.| J H L P / F.qXbXxXdXdXsXdXwXfXtXyXwX:X%XiX1Xz.z.b.n.N.n.n.n.b.I.uXtXfXaXwXwXqXqXaX2X-XH.` G i i i i i i i i S u 2 u i ",
"W } | t.} W H F i 5 9 J.yXnXdXdXaXyX0XwXyXwXwX#XeX4Xz.c.c.c.n.c.v.n.n.m.m.F.3XtXfXhXtXtXrX4XO.O.G i i u y u i i i i i A S i i i ",
"W } W w.,.F i i a 3 3 l F.yXnXbXfXsXyXwXiX0XrXiXgXJ.n.v.n.N.N.n.N.n.n.m.M.m.F.gX3X3X5XJ.A.X.G i F F i i A i i i i i i A Y F F A ",
"F H H Y Y i A 3 1 3 3 3 z.4XwXnXnXdX0XfXwX0XsXgX5Xz.v.N.N.N.E.M.E.M.n.n.M.B.b.U.T.I.J.J.A.Z.*.&.#.P K A A F i i i i F F H -.H L ",
"W J H 1.| W H H 5 5 5 5 J D.J.$XbXbXsXfX0XfXhXbXU.m.E.E.M.M.n.n.N.M.M.m.B.M.n.R.fXgXrX<XeXiX3X5XJ.L.` K L P F K K K K K L Y E P ",
"W H Y =.P P W H F 2 5 F A J X.A.6X5X5XpXqXyXwXxXF.M.m.M.M.m.B.M.M.V.V.Y.n.m.m.R.5XiXtX3XeXtXiXrXtX4Xz...` P K P i D L P W W -.P ",
"F H ;.W F } } H F F 5 A H F F T ` +.C.o.l.J.D.U.R.E.W.Y.E.E.W.W.W.Q.B.M.V.Y.B.R.5XrX3XrXrXrX3XeXrXzXkXT.L.W L W P P P P P ! ! P ",
"a i A K i P F i i i i 2 2 2 2 2 2 2 2 ; 2 3 l { ( h.a.f.h.g.g.f.r r f f f f.f.d 4.8.8.4.4.M j.C B XXXX8.l 2 2 y y i u 2 y , > 2 ",
"i A A i F A P K u y u u 2 > ; ; ; ; p 7 h b '.*X7 f.s.i.w u.i.s.s.a.w w e e u.7 m V B V M V B n M c M B oX/ 2 - * * # * > > ; ; ",
"i A S F i A i u i i y y u i 2 2 2 / X.v {.`.G.[.l t a.w a.p.e w u.i.p.d.g.p.r 7 m n C M c M C C j.].{.[.'.b 1 * * ; ; ; , ; - * ",
"L P R W i A y u y ; 2 u i i G o.K.@X[.[.*X[.|.`.4.0 u.w e e w w i.s.p.i.u.w q x B b V V '.V V M n n V `.'.:X4.2 ; ; * * - O $ # ",
"u A A -.P L L < $   o 2 P z.Z.$X#X0X2X*X{.].OX*X|.X.d u.g.u.p.p.e w f.u.s.f 9 [.'.'.`.B M B M `.V j.j.`.B XXB 3 - ; ; ; > > ; ; ",
"F A F Y F L P A *     ; X.+.iXqX:X:X*X|.2X0X*X-X-X`.{ t g.f.g.a.g.p.p.h.r / G.j.].V B B C `.B M G.oX'.#X{.`.|.l 2 > 2 > > u > ; ",
"5 A A =.F H K A ; o o 8 h :X|.'.#X{.*X{.[.*X].-X{.].'.v 7 q r g.f f f.( _ _ 4.|.].].].`.`.[.OXXXOX[.:X#XOX'.oX` 1 ; < ; ; ; > ; ",
"F i H Y A F P P i > i / oX*Xj.{.[.OX*X[.|.].OXOX[.:X].m z S.' ] ( 4.X.H.|.@X/ H.:X#XOX#XoXOXXXj.oXoXB oX#XOX#X` 2 2 2 y 2 y > ; ",
"A H 1.| #.#.#.#.P } z.4.wXwXrXqXfXaXwXtXwX0XaXwXqXwX-X+.;XtXtXtXiXkXrXfXiXiX6XI.uXiXtXiXtX;X>X%X$X,X%X,X<XeX<XP.J F F F F i Y F ",
"J T | } } | } W P @.C.0XbXhXfXaXwX2XC :X0X2XwX0XwXyX*X+.aXwXaXyXfXiXkXfXbXhXcXT.J.uXiXzXgXfXtXeXtXeXjXfXgXfXhX1X..L H P H Q Y A ",
"H R F } W } H T H 4.C.fXaXaXaXwX.X0X].qXaXwX0X2XqX-X@XC.yXwXwXaXdXgXfXiXfXhXgX5X@.A.L.$X3XeXkXiXfX;X3XiXhXfXrX3XZ.P L P L R A A ",
"J =.Y W #.} H P W O.K.cX-XwXaXyX0X-XqX0XwXyXqXwXyX-X+.&XwX0X0XqXyXhXfXiXiXdXcX5XZ.W [ z.D.D.J.6X5X1X1X1XI.J.rXgXT.Z.H L L -.E F ",
"H H :.H F } W P P J l.qXqXyX0X2X|.{.*X*X2XaXaX*X-X&X' qXyX0X0X0X2XwXiXfXiXwXfX3XA.H L P P P P { X.O.} ` ` O.z.K.J.z.F F A Y R A ",
"F H -.H J W } P P J l.wXdXaXqX|.'.[.oX:X:X0XyX0X:Xx _ yX2X#X2XqX2XaXyXfXfXtXhXrXl.J F L A L L H H P L H F F J { +.A.@.H H H R H ",
"W } 5.-. .W T W H J A.fXnXwXwX.XqX2X|.wXgXaX.X2XX.3 X.wX0X0XwX2XwXtXiXwXeXkXcXtXJ.` L H P L P W P P P P W W W T T [ J H H W >.H ",
"} T :.H T W W } T Z.C.sXaXyXqXwXqX-X:XwX0X2XK.l.h 2 C.uXaXaX2X-X3X2XtX0XrXrXjX3XA.J H P J P P } } P W J P W } W } } P P L ! E L ",
"J H T H J T P ; 4 o.1XnXbXwXqX{.#Xj.@XS.l.o._ J J J F.5XnXsXbXfXcXhXrXhXbXbXmXlX6X} } | W W } W | W | W W } | W | W T W } 1.P P ",
"J j F H 4 F 5 i F / 2XxX1XJ.D.Z.Z.o.' ( 9 8 a F F F o.U.yX|.-XwXwXaXgXhXnX2X0XjXD.W W P W W Y W | W W W } W W W W W W W T 1.%.| ",
"| F a > A W W [ I.J.5XJ.O.T H T T 5 5 a 5 3 5 F a a l x oX:XqXqXgXsXfXfXfXtXG.4.Z.W P J W W W W } W W W W W J P H H F H J H } } ",
"} F H -.P } J Z.U.D.O.[ | T | | [ F 8 8 3 3 3 3 3 3 a 9 o.iX0X0XtXfXfXtXfXfX0XS.X.} J H W W J H T } | W } W T W J H H H -.! P W ",
"| F ,.>.T } F P ` J F J [ J T T J J F a 3 8 1 3 a 5 3 F z.5XaXtXfXgXcXdXgXhXK.+.J } W J T W H T H H T W | | T T J H H H ;.;.L H ",
"} J :.5.| P F J J T T J T T T J T G J a F G J H F a F F h l.U.uXbXcXxXhXfX5XA.[ J W } W T } W W T W | | W | 1.! ! W W Q 6.!.W H ",
"H L 5.:.| [ T 1.t.1.H F H J T 8 F 8 F a F J 8 8 F J J F J H h l.pXbXtXqXH.A...P H A A P T W P W W W | W W $.t.6.^.^.! ! 6.6.W W ",
"; A ! H F H Y Y Q S 5 2 2 2 2 2 2 ; 1 ; ; 1 5 F 5 3 5 2 3 5 3 2 l m 4.x 8 5 F F A A i > A F F i A F F K K K ! Q I S S A S S i i ",
"i F A 2 u I I U R g 2 ; ; ; ; % ; ; % % O O O ; ; 1 ; = & % % % & m c 3 * * > 2 ; ; ; - > > ; ; ; ; > > ; > > Z , , , > > > - - ",
"i A A 4 U I I S g 4 2 2 1 1 2 ; 1 ; ; ; & % % # O % % % % % % @ 3 N 8 2 > 4 4 A F 4 2 > 4 2 2 2 2 2 u u > > u S I U I Z > > u 2 ",
"4 F A S I =.=.I g 5 2 2 5 2 1 ; ; 2 2 2 2 2 ; ; ; = % % % ; ; ; 8 l ; 2 4 A A u i F u 4 F A u Z u u i A S S A S U =.U R u i u i ",
"> 2 2 S I I Y A 5 5 S S g 4 2 ; % % - > > ; ; ; & = % * ; ; ; % 1 & & ; > > , , 2 i 4 2 S I Z S S 4 u S U I S u u A I S A u u u ",
"5 4 A g 4 A H F A g g g , 4 > ; # ; > ; & % & ; % % % - ; ; ; ; % & ; ; ; - ; ; Z u A S A A u i Z S u u Z S I I i i L L A i u y ",
"> > > 4 4 5 i 4 2 ; 2 g 4 2 ; ; % > > ; 1 ; ; ; % % % O % % ; % * % ; % % % ; - > > 4 u > 2 > 2 u 4 > 2 2 u u u D u i i i u i 2 ",
"> , % > 2 > > ; ; ; 1 2 ; ; ; % % % % = = = & % & @ % % % @ @ @ % % % % @ % % % ; % - > > > ; > > > > > > > > > u u > > u > > > ",
"O o X O X X X O O O O O O o O O X X O X X X X X X X X o X X X X X X o O O O O O O O o o O o o # % - * # O # O O O # O O # O O # "
};
