/* XPM */
static char *calestial[] = {
/* columns rows colors chars-per-pixel */
"64 64 244 2 ",
"   c #241513",
".  c #2B1A1B",
"X  c #281819",
"o  c #2B1C24",
"O  c #2C1F29",
"+  c #331F24",
"@  c #2E212C",
"#  c #34222C",
"$  c #3A242C",
"%  c #372228",
"&  c #352533",
"*  c #3A2633",
"=  c #3C2836",
"-  c #352738",
";  c #36293A",
":  c #3B2B3C",
">  c #2F2638",
",  c #3F211E",
"<  c #482A1B",
"1  c #5A362B",
"2  c #432E3D",
"3  c #452C35",
"4  c #593439",
"5  c #4F2E32",
"6  c #65372D",
"7  c #6B3B3A",
"8  c #653937",
"9  c #723C34",
"0  c #783C37",
"q  c #723B2D",
"w  c #6A442B",
"e  c #72472D",
"r  c #725C2A",
"t  c #6B4436",
"y  c #7B4335",
"u  c #754A33",
"i  c #7B4D34",
"p  c #7B443C",
"a  c #7B4B3A",
"s  c #734438",
"d  c #7D5137",
"f  c #655320",
"g  c #7C662D",
"h  c #7D6632",
"j  c #53431B",
"k  c #3C2E42",
"l  c #382D45",
"z  c #3E3045",
"x  c #3D324A",
"c  c #3A3858",
"v  c #2D374C",
"b  c #3A3E64",
"n  c #412E40",
"m  c #433245",
"M  c #4A3445",
"N  c #4B3946",
"B  c #43354B",
"V  c #4B364B",
"C  c #46384D",
"Z  c #4B3A4D",
"A  c #523B4C",
"S  c #593946",
"D  c #443750",
"F  c #453952",
"G  c #4B3C53",
"H  c #4C3E59",
"J  c #463E5B",
"K  c #513D54",
"L  c #513F59",
"P  c #663D46",
"I  c #723E43",
"U  c #403D60",
"Y  c #3B4369",
"T  c #374C79",
"R  c #325475",
"E  c #39717B",
"W  c #3B445E",
"Q  c #4E4155",
"!  c #4E415A",
"~  c #45415E",
"^  c #534255",
"/  c #53445C",
"(  c #58475B",
")  c #5A4A5C",
"_  c #594758",
"`  c #57414C",
"'  c #6B444A",
"]  c #754343",
"[  c #7A4947",
"{  c #7D5145",
"}  c #674956",
"|  c #764C55",
" . c #68535D",
".. c #765254",
"X. c #484566",
"o. c #534561",
"O. c #564964",
"+. c #5B4C63",
"@. c #5B4D6A",
"#. c #564968",
"$. c #5E506B",
"%. c #5F5066",
"&. c #574E70",
"*. c #465479",
"=. c #585376",
"-. c #494D74",
";. c #604F62",
":. c #635264",
">. c #63536A",
",. c #6B596B",
"<. c #725964",
"1. c #6B5C73",
"2. c #6A5D7A",
"3. c #655877",
"4. c #446877",
"5. c #46757E",
"6. c #726279",
"7. c #803E36",
"8. c #844B3B",
"9. c #864838",
"0. c #964B3B",
"q. c #835435",
"w. c #84543B",
"e. c #8B553C",
"r. c #8B5A3C",
"t. c #885738",
"y. c #935C3C",
"u. c #97553A",
"i. c #845D2E",
"p. c #846C2E",
"a. c #8A732E",
"s. c #836B33",
"d. c #876A36",
"f. c #98643B",
"g. c #8B7332",
"h. c #8A7236",
"j. c #947B34",
"k. c #947B3B",
"l. c #967935",
"z. c #937B2F",
"x. c #A7773D",
"c. c #864D45",
"v. c #895645",
"b. c #965947",
"n. c #8C514E",
"m. c #A05D49",
"M. c #9B6344",
"N. c #996547",
"B. c #937248",
"V. c #A46B46",
"C. c #B07545",
"Z. c #805B61",
"A. c #9B8334",
"S. c #9C823B",
"D. c #A48A35",
"F. c #A1863B",
"G. c #A48A3B",
"H. c #A98E3B",
"J. c #A78838",
"K. c #AC913C",
"L. c #AD9137",
"P. c #B2943D",
"I. c #BB9D3E",
"U. c #B5993D",
"Y. c #B3893F",
"T. c #BFA13D",
"R. c #C4A53E",
"E. c #D4B33F",
"W. c #9D8242",
"Q. c #A58A42",
"!. c #A98E41",
"~. c #A58A45",
"^. c #AE9142",
"/. c #AF9249",
"(. c #B39643",
"). c #B69943",
"_. c #BA9C43",
"`. c #B79848",
"'. c #B68A44",
"]. c #BFA043",
"[. c #C3A443",
"{. c #C7A744",
"}. c #D4B341",
"|. c #375487",
" X c #365C97",
".X c #2F5083",
"XX c #39659A",
"oX c #357489",
"OX c #3A67AA",
"+X c #3C76B9",
"@X c #396CB3",
"#X c #3A5FA0",
"$X c #495687",
"%X c #465C94",
"&X c #515C8D",
"*X c #695F81",
"=X c #456788",
"-X c #4A7988",
";X c #46639B",
":X c #556A95",
">X c #4B7A99",
",X c #537894",
"<X c #566889",
"1X c #6C6283",
"2X c #746784",
"3X c #4977AC",
"4X c #4275B7",
"5X c #496EA9",
"6X c #3E76C4",
"7X c #437AC5",
"8X c #398690",
"9X c #4D818D",
"0X c #4C8996",
"qX c #538D9C",
"wX c #578A96",
"eX c #598B97",
"rX c #60909B",
"tX c #5686A7",
"yX c #4B96AC",
"uX c #5593A3",
"iX c #5B9DAC",
"pX c #5B96A4",
"aX c #4987B4",
"sX c #4898B5",
"dX c #508FB1",
"fX c #649CA9",
"gX c #6390AB",
"hX c #5CA5B6",
"jX c #4BA1B2",
"kX c #64A4B3",
"lX c #64ACBC",
"zX c #69ADBD",
"xX c #6CA4B5",
"cX c #69A8B6",
"vX c #3E81CD",
"bX c #55A8C5",
"nX c #65AFC1",
"mX c #65B3C4",
"MX c #6AB3C4",
"NX c #6ABBCC",
"BX c #66B8CA",
"VX c #68BED0",
"CX c #458DC0",
"ZX c #6AC2D3",
/* pixels */
"l C Z Z Q G ! O./ H ! O.O.O./ H / ) ! ^ ! H H G F G C C C G C D C C z z l z z l x x x x C x x x F C F C C C l x l l l l l : : l ",
"C C C C M Z C C M C Z L L M C / / / / ) O.G H / G G C C C F G F F G x C z - - z C z C C x x C l l z : l l : l : C l l l : : : m ",
"G G H G K C C Z M C Z / O.L G O.#.#.#.) ) / H H H / O.! F F G G / / Q G F Z G C G C G ^ G Q / / / ) X.H ! G G n H G H ! G G m D ",
"#.O./ Z / / $.#.$.>.#.O.#.$.$.$.#.3.3.3.#.#.$.$.| v.[ ^ Q Z ^ ^ ^ G / ) )  .Q Q / Q / ) ^ ) ) &.O.#.#.#./ O.G C G m C H G C M C ",
"#.#.#.O.#.3.1X2.3.6.1X2.3.3.3.1X2.3.3.3.:.$.$.$.| b.b..._ ^ ^ ) ) ) ) / / #.#.) %.O.:.:.:.) $.tX<X$.,.$.=.#.) ^ ^ G G / / / Z m ",
":.3.$.#.#.*X2X1X2.1X3.6.6.1X,.3.,.<.3.<.,.:.:.#.;.b.V.b. .O.) :.) #.#.) #.:.#.;.:.:.$.:.:.O.$XkXfX:X:X,XtX:X#.#./ O./ / G L G G ",
"<.;.:.O.3.1X3.1X2X1X1X3.3.2.3.2.3.$.>.,.,.<.,.:.:.n.V.V.n.:.%.:.:.:.#.O.#.:.#.#.#.#.=.<X,X<XtXMXBXMXxXkX:X&.#.#./ #.O./ ! / H G ",
" . .) z #.1X2X2.,.2.6.1X2.6.3.,.,.,.,.,.,.:.,.,.Z.m.V.C.n.,.%.#.;.:.:.#.,.,.,.,.:.#.O.=.:XtXkXzXzXMXkX;X3.#.,.#.O.#.O.#./ O.O.G ",
"<.<. ./ O.,.*X2.2.3.3.,.1.3.3.3.3.#.#.#.#.,.,.<.m.V.C.V.b.<.#. .<.,.#.#.:.#.#.#.:.$.:.,.#.=.tXMXMXMXgX=.:.%.#./ H / / #.#.#.O.G ",
"_ ) _ / / ) / #./ ( #.#./ Z } n.n.' A G G G P 0.f.f.f.y.9.S N 7 p N N Z Z Z Z Z Z Z Z m m J =XqXwX4.-X-.C m C M C C m N m N M 2 ",
"/ / ^ G G ^ / ) / / / G G Z G S c.8.p 2 l S 9.y.f.y.y.f.9.C 7 y y 3 = = * * : = l : = * : c -X-XW l Y =Xc l x b c x l x b Y l l ",
"Q Q Q ^ ^ Q ! ^ Z G ` ] ] 8 S C P i i 6 5 9 q.q.t.e i y p 8.w.t.t.C I S l l - : 2 4 l l l T uX|.c x x c Y x z T -XY Y =X*.b l : ",
"G A ^ ^ G K } ' Z G P c.w.q.8.P 8 t.t.w.9 9 e w d d s a t.w.d t.y 8 s 8 : m : : 2 9 5 : : c Y x : : l l x x C Y wXiXuXqX-.C m l ",
"G / / G G S c...G Z Z ) c.t.i p 7 t.w.8.1 < < q 9.9.9.9.9.8.w.a 9.t.t.] C C D C P w.7 C C C l m : : l l m z F *.qXiXiX=XJ C z l ",
"G Z Z M m 8 a 7 m M m A p e u i 9.w.t.9 < w u.u.f.I.P.Y.x.u.0.9.w.t.s 7 m C C 8 p t.y l l l z C m C l l l c $XqXuXuXiXuXT C C C ",
"2 C C m n 7 q.p C C m 4 8.d w.u 9 q 6 1 f j.A.j.j.z.j.D.D.D.x.0.q.y.9.7 8 4 7 9.q.q.s : - - - l : l z l c =XuXuXuXhXuXqX>Xb C n ",
"A M 2 2 3 < 6 6 5 = $ $ 6 w s s 0 q.r j g A.A.D.A.D.D.D.K.D.K.L.g.0 9 u u w i d d d y l l : - l : l : l c c c c T qX*.*.=X*.C : ",
"m 2 2 = 2 8 i w.w.p 7 1 8 s 9.q.l.D.D.< j.A.A.S.A.S.S.W.W.B.B.D.D.F.u.t.w.{ w.t.v.t.] C C m m m m Z Z m m m m m X.,X~ Z C J F C ",
"* m 2 m m 4 t u t.v.t w 6 9 q.J.A.z.a.f g.A.D.S.D.F.D.Q.~.~.~.Q.~.!.K.M.v.w.{ d w.i 4 C C Z G G G Z G G G C G F -.$XG G Z Z Z Z ",
"m Z G G Z M 8 8 u b.d i q q.j.j.L.D.A.p.j.D.D.k.D.H.D.D.S.k.k.W.S.S.D.D.9.w.b.b.0.[ G C G G G Z C G G C G G C F X.X.G G G G G G ",
"m m m M C C = 1 6 w i q i j.D.F.A.A.H.S.D.D.D.S.S.S.j.j.~.~.~.^.W.W.~.K.Y.0.t.c.I Z G G G G G G G G G Z G G F C C C C z z z l - ",
"C C G M C m m - $ 6 s y F.D.j.D.K.k.F.k.g.j.j.D.~.K.W.H.H.!.~.~.!.~.!.P.U.M.c.v.[ S G G C m m m l : l z m C z : z z l C Z C Z C ",
"C : C m 2 m Z m m 8 0 f.I.K.A.H.F.g.A.F.K.H.K.F.S.k.D.K.!.(.K.!.^.~.~.D.j.s.y d i 6 4 7 Z G G G G G D F G G C C C C C Z Z C m l ",
"Z G C ^ / ) _ ^ K ] 0 l.I.D.a.j.j.U.K.K.H.D.D.D.B.!.!.W.S.g.s.g.k.k.j.k.K.K.f.v.t.v.t.' C G C z m C C C C C m C C m C C C C C C ",
"G Q ^ ^ } ) _ S 7 t 0 p.j.j.j.j.S.D.D.D.S.S.j.k.k.k.g.s.g k.S.k.k.S.S.D.D.F.k.9.p t 8 2 : m m m F ~ C C m m C m C m m m m C m m ",
"/ / #.} n.n.} c.M.y.u.T.R.R.)._.^.(.I.R.).^.!.S.).(.~.^.).).!.^.(.!.(.I.[.[.).b.[ ] S C C G C C XXXX XJ C F C C C C Z C C l C G ",
") #.:. .b.N.M.M.y.t.e.U.I.(._.~.!.P.K.).).^.H.g.~.^.).P.D.H.^.P.^.(._.(._.P.[.C.b.M.v.[ P G m G $XaXdX XY C G C C G G C C C C Z ",
"#.;.#.:...b.y.y.y.a f.K.H.I.[.[.{.R.(._._.K.~.!._.].I.I.(.I._.^._.(.~.).(.(._.'.b.M.b.' ^ G G Z X.+XjXdX+XX.Z F G G C G G H G G ",
"K / / G ' [ 9.7 s p y.l.P.[.{.E.}.[.(._.P.S._.]._.H.U.I.T._.[._.[.].(.(.).(.^.C.n.v.' _ ^ ^ ^ ^ ) 5XyXkXyXOXX.C G Z G G / / / / ",
"#./ / } b.V.V.N.v.[ u.J.R.[.[.}.}.[._.(.P._.[.[.{._.[.[._._._.^._._._.`./.).^.C.b.b.b.} _ / ( / / ;XdXkXkXdXOXO.^ ^ G ^ / G / / ",
") / G c.M.M.V.V.b.a y.R.I.R.[.{.{.[.(._.P.[.[._._.].)._.[.).~.(.)./.~.~.B._.).C.b.M.b.c._ / } { _ =.aXiXhXBX3X%XG Z ^ / ) ) ( ( ",
"K K } b.' }  ...0.c.0.R.[.).).[.[.`.`.W.).(.(.^._.[._.[.{._.[.[.[.[./.`.~.`.`.b.N.M.b.b...' c.' ^ =.4XkXkXlXyX3X#.) / / _ / / ( ",
"S 4 9 ` N ' A S a d p d.s.l.g.g.g.s.s.r p.g s.g.j.D.j.g.S.D.S.g.g.d.s.h s.j.l.0 d s u t w t t 3 : x  X-X-X-X-XoX|.C C z : : : z ",
"C A C C ' b.v.v.s d c.y.K.A.g.j.s.g.g.h a.s.g.j.p.g.h g g g.g.g.g.p.g g g g i.q 6 6 6 1 1 6 5 @ @ @ Y 4.-X9XuXE R > O * - : : : ",
"F G C G P b.f.t.t.t.d 0 x.T.D.g.g.A.j.s.j.h t s.g.g.s.a.a.g.r g g a.l.j.A.z.e 6 $ # 3 5 $ * * * * l XXqX9X4.4.E R b - : : - - * ",
"/ ) ! ^ Z ] p t ' 8 p 9.0.D.L.K.H.j.j.s.D.g.F.g.g.g.s.a.r r g g g.j.g.z.g.i.6 8 5 * * - : - * * * * R E -X0XuX8XoXT * * * O @ O ",
"C G G / / / _ M 3 < < 8.0.V.D.D.k.!.k.A.D.g.l.j.j.j.p.a.g.g g.g.r g g.a.l.9.u i t 5 : * * * # * * z |.E 4.-X-X5.E .Xl l l : : : ",
"! G G G G ^ ^ G = < < w t.0.b.H.J.S.j.D.K.D.s.k.D.g.g.j.j.h g.a.A.j.j.l.9.y s w t 5 - * * - * * : c T E uXqXuXwX8XXXY l l l : : ",
"C G G H H / ^ G 4 1 < d t.d 0 q.l.D.D.g.g.S.k.k.g.g.g.p.j.g j.A.g.j.g.y t a 8 9 u 6 4 : : : l l z Y XXqX9X9X9XwXoXoXY : - : - - ",
"G C G Q G G / / ' t.d t.q.i 6 y 9.0.d.g.j.D.D.s.j.A.a.p.j.j.k.k.j.l.q.q.a w.4 m 7 s 4 l : l l : m  X=XuXuXpXuXpX8XoXT m l l : : ",
"G ^ ) ) :.:.:.} ..N.f.f.y.p [ y.f.b.u.'.x.W.P.Y.S.D.A.H.D.K.Y.x.x.c.b.N.v.c.} ) ) / / / G A Z Z / ;XwXrXrXrXeXpXrXqX;XQ G Z Z Z ",
"( K ) } #.:.#.) | N.V.N.b.' b.f.f.w.6 0.0.0.0.0.0.u.0.u.u.0.u.b.n.c.N.N.N...#.) ) #.#.#.) ) / / %XaXcXkXlXlXBXlXlXsX+X#.! ! H G ",
"/ K K #.#.#./ #.c.V.V.N.t.K ] y.8.7 w t.b.0.9.9.8.y.0.S ' y.f.{ } n.b.N.N.b.b.( / ( ) ) / ( ) =.4XjXlXlXkXlXlXcXhXyX+XO./ Q G G ",
"O.! ! ) :.| | b.M.V.V.V.[ C P y.p S c.y.8.t.y.t.f.t.t.] A 8.t.b.' } b.b.b.M.M...O.O./ ) ) ) ) ;XaXhXkXfXkXlXkXlXlXjX+XO./ ! Q G ",
"/ H / / ! } c.b.b.M.v.[ G F [ 9.S M p 8.P [ b.t.y.f.t.9.G S [ t.8.G ^ _ ....b.} ^ / / / ) / %X5XjXlXkXkXkXlXkXBXlXhX@XG G G G G ",
"/ / O./ / ) ) } } ' } G G K I m 2 4 7 S C S I c.y.w.w.[ M m C c.I G G ^ / | } / G G ! / X.5X4XjXlXlXlXBXlXnXBXBXBXsXOX! O./ ! H ",
"#.#.#.O.,.#.O.#.O.O./ / H G C M C S M C G Z C P t.q.t.I C C Z ] K G G G / ) #./ / / / %X5X+XsXlXNXlXNXMXNXVXNXZXZXCX;X! O.O.O./ ",
"#.#./ / O.#.#.#.O.O./ / H G C C C M m G G G G ' y.q.v.P G G Z C Z C / G / /  .( G G $X4X>X0XpXfXfXkXkXfXfXfXfXkXfX5XO.^ ^ ^ ^ ^ ",
"/ Z / O.O.#.) : C G L O.O.! L G G 2 M C M C K n.V.b.| O.O.K / L / ! ^ / ! O.#.,.&X5X4XsXbXBXzXMXNXBXMXMXMXNXZXZXbX4X#.#.#.#./ / ",
"O.Z K / C G C Z C n Z / / O.O.O./ C G C M C A y.b.[ / / / C C G L / O.( #.X.%X3XaXsXiXBXNXBXBXzXcXNXMXMXzXNXNXVXvX%X#.O.O.#.:.#.",
"$.G Z l G #.#./ O.%X#.#.#.#.O.#.#.C C C C M C [ 0 P C M m m C G -.$X%X;X4X3X4.-XkXMXBXBXNXMXMXlXzXzXzXzXzXlXBXaX;X/ ! / O.O.#.;.",
"#.K L / ( #./ #.&X3X-.#.#.#.#.#.#./ Z C 2 M M 2 4 S G X.T ;X;XOX+XaXsXhXlXlXhXBXMXzXBXBXZXNXZXBXZXNXMXMXMXBXbX6X#./ / / / / / #.",
":.K ) / O.#.K &.,XfX$XO.#.O.#.#.O.( L K M V 3 2 A M C %XtXlXpXhXhXNXVXBXzXzXlXBXNXMXNXNXNXNXBXBXBXBXNXBXNXnXvX-./ O.O./ / / / / ",
"#./ K O.&X:X,XtXiXMXtX%X=.&.#./ O./ / Z K K / / K C L X.5XBXBXBXlXnXlXBXlXMXMXNXBXNXzXNXZXNXZXZXNXNXZXNXbX7X&XO.#.#.O.O.O.O.#.O.",
"/ ^ ( / #.$X,XNXNXNXBXiXdX3X%XZ K V K A K ( C Z L O./ L -.+XdXhXBXlXfXiXhXBXzXlXlXpXhXlXZXNXMXMXNXZXBXsX7X<X%.#.#.#.#.O.O.O.O.O.",
": Z ^ N A A X.wXpXwX9X4.X.F m 2 2 = 2 : $ 3 C G m 2 m m m C Y |.XX=X-XqXwXpXpXfXiXhXpX5.iXpXfXwXeXqX>X$X/ ` _ Z Z N Z N N Z Z C ",
"C ! G C z F =XiXhXiX,Xx : = * # : * * O o o o = = 3 * $ # # # # v T |.|.R R E 9X-X=X4.4.=X=XR |.R T b l : l - l - - - - l l * - ",
"F H F C D U >XuX>XuX,Xc : : m : = * * * # # # O o # # # # # % o * - - c Y |. XXX@X@XOX XOX X|.Y c z C C z z z m C C C z l l C x ",
"C Q G C C $XtX=XX.=X,Xc m : : * : n m 2 n l : = * * # + # * : * : : * l C C F C J X.F D ! G C C D F F F F F G F G G G G F C C C ",
"l m m C F $X*.H F X.=Xb m : : : * * * * * * * * * * * * * = * # # $ $ * * : : : l C C z C Z C C C m C C C C C C C C C F G C C C ",
"D C H F F X.! ! G C c l : : : * O : * : # * # * # * * * # $ * $ # * * * * * : : l z Z C G F C C F C x C C C C C C F Q Q G C C C ",
"x l x C C F D D C : : m m l : : * : : : : * * * # % O o # # * # # % * * # * - - l l m C z x z x C C z x x C m C G C F C C C C x ",
"l x > l C l : l : * : : : : * # # # # * $ $ $ % # + # % # + + + + # + # + # * # - * * l l l : l l l l l l z l z x C z z C z z z ",
"o X   X       X . . . . . X . .   X X                               X . . . o O o X X . o X X O @ - * O o O o o o O o o O o O O "
};
