/* XPM */
static char *treeolife[] = {
/* columns rows colors chars-per-pixel */
"64 64 248 2 ",
"   c #20130F",
".  c #251511",
"X  c #281712",
"o  c #2C1B15",
"O  c #281B19",
"+  c #341E17",
"@  c #331F18",
"#  c #36211A",
"$  c #3B241B",
"%  c #3E281F",
"&  c #352316",
"*  c #303218",
"=  c #211F27",
"-  c #2B2529",
";  c #3A2624",
":  c #3F2921",
">  c #3C2C2C",
",  c #352728",
"<  c #39362A",
"1  c #3B2E32",
"2  c #332C33",
"3  c #2F3332",
"4  c #3C3235",
"5  c #3B3B34",
"6  c #3C343B",
"7  c #3C3B3C",
"8  c #36333C",
"9  c #1A1B22",
"0  c #41261C",
"q  c #43291E",
"w  c #4A2C1F",
"e  c #49331E",
"r  c #53361E",
"t  c #442C21",
"y  c #4B2E22",
"u  c #432E2A",
"i  c #502F21",
"p  c #4C3125",
"a  c #46312C",
"s  c #4D342B",
"d  c #483728",
"f  c #533425",
"g  c #5A3625",
"h  c #553A23",
"j  c #5B3A26",
"k  c #533629",
"l  c #59372A",
"z  c #553A2B",
"x  c #5B3B2B",
"c  c #433434",
"v  c #4D3633",
"b  c #4D3932",
"n  c #44373C",
"m  c #4D3B3B",
"M  c #453A3A",
"N  c #543B34",
"B  c #5B3D32",
"V  c #543E3A",
"C  c #583F3B",
"Z  c #623E2B",
"A  c #683F2B",
"S  c #613927",
"D  c #613F30",
"F  c #3E441B",
"G  c #384017",
"H  c #3D4229",
"J  c #3E433B",
"K  c #3D4234",
"L  c #444C1C",
"P  c #41451B",
"I  c #46511D",
"U  c #4A541E",
"Y  c #4C5A1E",
"T  c #505E1F",
"R  c #52541F",
"E  c #5C411F",
"W  c #4D601E",
"Q  c #51621F",
"!  c #444A2A",
"~  c #484926",
"^  c #5E4124",
"/  c #5E412B",
"(  c #564727",
")  c #4C5322",
"_  c #4E5B22",
"`  c #4A542C",
"'  c #4D5B2B",
"]  c #45512A",
"[  c #535D23",
"{  c #585D25",
"}  c #525B2C",
"|  c #555829",
" . c #424333",
".. c #444B33",
"X. c #42453B",
"o. c #444B3A",
"O. c #4B4E3A",
"+. c #4A4938",
"@. c #5E4132",
"#. c #55413E",
"$. c #5B413B",
"%. c #504F37",
"&. c #4B5433",
"*. c #4D5B34",
"=. c #4B543B",
"-. c #4D5A3D",
";. c #46503A",
":. c #535C34",
">. c #53553D",
",. c #535C3C",
"<. c #575836",
"1. c #624425",
"2. c #654926",
"3. c #64412D",
"4. c #6A432D",
"5. c #6B4C2B",
"6. c #694B27",
"7. c #714D2C",
"8. c #74472F",
"9. c #6D5229",
"0. c #74532C",
"q. c #79562C",
"w. c #7C5A2B",
"e. c #745428",
"r. c #644332",
"t. c #6A4631",
"y. c #6D4A34",
"u. c #6C4C3A",
"i. c #644738",
"p. c #714730",
"a. c #734C35",
"s. c #744F38",
"d. c #7A4D33",
"f. c #745332",
"g. c #7B5433",
"h. c #7B543A",
"j. c #755339",
"k. c #6B5F3B",
"l. c #4F6021",
"z. c #546322",
"x. c #5A6425",
"c. c #566922",
"v. c #5B6C24",
"b. c #53632C",
"n. c #5A642B",
"m. c #5C6B2A",
"M. c #56692C",
"N. c #5D7224",
"B. c #5E712A",
"V. c #5F7823",
"C. c #546334",
"Z. c #5A6534",
"A. c #5C6C33",
"S. c #55633C",
"D. c #5B653C",
"F. c #5B6B3B",
"G. c #566938",
"H. c #5E7135",
"J. c #5E7439",
"K. c #4F6036",
"L. c #636D2B",
"P. c #606D25",
"I. c #617425",
"U. c #647A25",
"Y. c #64742A",
"T. c #69762D",
"R. c #667A2A",
"E. c #6A7C2B",
"W. c #697F27",
"Q. c #616E34",
"!. c #636A3A",
"~. c #637434",
"^. c #657A31",
"/. c #637239",
"(. c #6B7738",
"). c #727B37",
"_. c #707A2F",
"`. c #393642",
"'. c #3C3A44",
"]. c #3C3C4C",
"[. c #373643",
"{. c #383D52",
"}. c #433C43",
"|. c #4A3E44",
" X c #433E4A",
".X c #413740",
"XX c #3D4243",
"oX c #3E434A",
"OX c #3D4457",
"+X c #444343",
"@X c #4C4343",
"#X c #444C43",
"$X c #4B4C43",
"%X c #43444C",
"&X c #4B454A",
"*X c #434A4B",
"=X c #4B4C4A",
"-X c #534344",
";X c #574947",
":X c #465144",
">X c #4B5344",
",X c #4D5A43",
"<X c #4B524B",
"1X c #4D584B",
"2X c #535645",
"3X c #535C43",
"4X c #5A5C45",
"5X c #52534C",
"6X c #595E4D",
"7X c #565949",
"8X c #444453",
"9X c #444B52",
"0X c #4C4B53",
"qX c #494854",
"wX c #4A5353",
"eX c #535052",
"rX c #644B41",
"tX c #655546",
"yX c #765845",
"uX c #556243",
"iX c #5B6444",
"pX c #5D6B43",
"aX c #57634A",
"sX c #556251",
"dX c #646847",
"fX c #657044",
"gX c #815D2D",
"hX c #815236",
"jX c #835D33",
"kX c #835539",
"lX c #8C5C3B",
"zX c #875A3A",
"xX c #905E3E",
"cX c #87632D",
"vX c #856133",
"bX c #8B6334",
"nX c #8D6538",
"mX c #946837",
"MX c #956C2F",
"NX c #8D6141",
"BX c #6A8427",
"VX c #6C832A",
"CX c #6A8427",
"ZX c #72842D",
"AX c #738A2D",
"SX c #738131",
"DX c #778830",
"FX c #6E8331",
/* pixels */
": s k k x k x Z Z x x Z Z Z Z x Z r.x x x x j g f f p p p k p p p p t t t t t t y y t t p t t p p p f p p p t t q q q q q $ q q ",
"f f f f i f f f i f f Z S i g Z y.g.a.r.r.x j Z f f f t p f k k f k p p t % # t p t p k 5.2.^ t t t q t q q q q t q q q q 0 q t ",
"g g 0.1.j f i g f f g Z A S g 4.f.y.5.f.r./ x k k 1.1.x f f k k r.1.k k s k k s k k k y./ x y./ 1.r.Z x x x f w j f j 1.1.1.t f ",
"4.4.q.w.vXg.d.4.p.8.4.Z 4.a.d.a.y.d.hXbXa.t.a.a.4.1.x x / k @.r.x k r.i.r.u.x k @.x @.y.y.r.r.r.r.t.t.t.Z 1.x p x j 5.vXe.f i f ",
"p.4.4.gXMXMXMXnXzXlXlXkXhXhXd.zXkXzXd.bXa.a.a.a.y.y.y.r.r./ @.i.r.r.y.r.1.t.r.y.y.r.y.a.g.f.h.f.a.y.a.y.t.t.a.f.jXvXvXq.Z Z g i ",
"a.h.a.g.MXlXnXmXMXmXnXnXlXzXh.g.h.NXnXzXh.a.a.y.y.a.a.y.y.i.tXtX4XtX;XrXy.y.y.y.y.j.y.a.a.r.5.g.vXvXvXjXvXbXjXq.7.gXvX4.g x g f ",
"j.y.y.1.bXmXhXlXNXlXmXbXMXmXbXmXnXjXg.a.h.h.a.a.a.a.u.tXdX(.AXDXDX).^.F.7Xu.t.u.u.y.y.y.r.x Z t.1.r.h.a.y.t.t.t.5.vXq.Z x Z x l ",
"j.j.t.t 7.MXnXkXkXkXxXlXkXlXjXg.h.h.a.h.a.j.tXdXdXyXdXDXDXDX(.(.(.(.pXiXpXfXfXdXiX7X;Xi.r.y.y.y.y.a.s.t.s.t.s.y.w.MX5.t.Z 1.Z g ",
"yXyXj.r.1.bXlXkXkXh.d.d.zXkXkXkXkXp.4.y.k.).ZX).).!.DXZXfXdX0XqX<X(.ZXVXDXZXVXVXZXAXDX(.6XrXr.t.t.y.a.y.s.y.y.1.q.w.1.t.t.t.1.g ",
"r.r.r.x 1.y.0.y.1.1.4.t.Z f 1.t.1.x N <.I.B.,X@X<XI.v.<Xo.[ [  .%.} { x.} :.:.%.:.} x.z.[ | @X#.k p k x f p p f 1.^ p f f k f t ",
"r./ x x x / w.r.r.Z Z x x f l f k s *XQ ' 5 c M M.v.-.6 n :XK.z.Y ! +.5 6 8 ~ ~ ..`.4 K ' [ ' 5 1 $ t t q t t q 1.^ t q t t t q ",
"x x x x x x q.x k x x f f t p s +X5 } ] ..&.! ..o.5 5 c }.z.} #XM.N.b.a q a '.' z.' '.> < *.N.N.:X'.t q q t t t p ^ t t t t q 0 ",
"x x x x k x f.1.f x x x i u b | ' =.v.:XQ W L G Y N.v.C.*.v.z.#X'.&.T } c p ; [.` T ] `.t > o.z.' J c q t t p t p 6.t t p p t t ",
"x 1.Z g f f 7.5.j g g 1.B %.[ :.$Xm.-.'.5 3 3 K &.b.z.#Xv.z.*.+Xn }.b.v.:.%Xs p '.C.N.b.].s u +.' ' XXu t t p p p 0.p f / 5.p t ",
"k k f i t t 1.j t i t k O.U +.[.C.v.].: X # M v.z.,X*X:.V.N.:XN.b.+X].z.c.b.*X].}.#Xb.z.*.#X=.%X#Xm.' 6 t t t t t 1.p t t ^ j t ",
"t p f j w q 1.f p t t +.v.#X].M O...< 3 - : 6 U [ ! '.z.z.' ' z.z.m.oX#XT Q v.c.z.Q J ' U J ` z.] =.:X#Xu t t t p j 0.^ 6.2.p t ",
"g f j f t 0 r q q 0 ; e d 4 ~ R T Y P * F +.'.z.Q z.o.v.N.#X*.c.T [ ] +.Y L Y z.z.z.z.#XQ l.J l.T z.] +.4 t t t t t ^ j f t t t ",
"t t 1.0 t t j p p f ~ ] $Xz.z.[ ' b.z.O Y z.' c.z.c.v.v.m.OX}.=.v.v.m.n.v.v.v.v.m.C.<X%XO.[ O.+XO.,.n.z.*.|.p t k k k k s k p s ",
"$ t 1.f f ^ w t f N ]  . .O.%X&.+.8 8 - ! z.v.c.v.v.v.v.m.}.k |.L.L.L.L.m.n.n.b.+X4 t p s C.Y.,. Xm 8X1XB.n.@Xk k k k k k k k k ",
"t f x 1.5.j q q 4 =Xz.J 8 4  .T #X4 : # 8 b.v.v.v.v.v.v.x.}.s @Xn.n.m.x.x.v.A.&Xk k k b V &XA.m.*XN }.C.<XY.m.%Xk k k k k x k x ",
"t p t f f p 0 t d 5 Y [.t > ` c.XX .O.o.&.N.v.z.x.z.[ z.L.,.,.A.L.L.L.v.I.N.*Xb p |.<X,.C.Z.Z.uX,XqX&XG.A.<XN.C.c p k t t t t : ",
"f f f i f f p < P 5 z.'.+X#X[ c.-.c.c.z.[ [ z.v.v.N.v.N.N.Y.I.I.Y.L.Y.Y.Y.Y.,.$X$XC.I.N.N.z.z.z.' ] ....z.].o.z.o.a t p k p k p ",
"f q f f t p b } x.o.;.=.U.=.Q *.} Y z.v.N.v.v.c.v.v.v.I.Y.Y.N.Y.I.v.I.v.' ] [ z.z.' [ v.I.I.I.Y.U.I.U.-.U.$X}.m.m.m k k k p t t ",
"g g f x x t.;XR.S.%X} z.B.o.Y o.:.F.S.S.c.c.c.N.N.N.Y.N.v._ ] ' n.[ [ x.v.m.N.I.N.N.v.v.N.N.C.*.C.n.v.=.v.=.o.#Xv.+Xs s p p p p ",
"j x x x y.r.<.x.+X%.x.] &.} { }.s v v M }.>.[ { { x.[ _ ~ { n.[ } x.z.m.m.n.x.x.[ ] ] ] &.%X6 }.&.=.<X#Xx.;.x.oXb.O.s p p p p p ",
"Z Z t.t.y.$.Y.Y.<XI.N.3XOXU.R.|.x x l x x v =Xx.U.W.U.U.Y.R.I.U.Y.Y.Y.I.W.W.W.U.U.N.N.,.].v f s #Xv.C.*XI.,XN.*.<XC.v p p t p k ",
"t.y.y.y.y.;XVXA.Z.v.$X#X%XCXS.k g f f k x k s +XN.U.U.N.v.I.I.I.I.Y.Y.T.W.P.W.^.!.pX0Xm k k t k }.C.N.<Xv.:X,XN.*XB.}.k f f p k ",
"r.y.t.s.y.>.I.,.v.#X[ &.#XU.uXD Z g x x Z k k }.F.CXU.U.U.U.U.Y.U.Y.R.W.W.T.Z.8X%.@.B x Z x k k N *XU.C.A.<XOXm.<XA.}.k x x l l ",
"x Z x x x ,.U.=.| ].x.` -.CX=XD 4.x g x f f x Z @Xm.I.U.U.U.VXW.VXW.Y.R.W.T.2Xr.9.1.r.r.r.x x x r.-XD.I.,.<X'.<Xn.,.9XB x Z Z Z ",
"t.Z x 1.t.F.CXS.<X].m.m.G.VX%Xt.t.1.x x k x Z 1.$.D.CXCXW.W.T.T.W.W.W.T.W.W.=Xr.y.t.r.r.r.r.r.Z r.r.=XY.3X3XN 0XY.2X$Xx x x x 1.",
"r.Z x x 1.!.VXuX8Xc :.BXS.R.m Z p.Z x x k x Z Z B *XT.W.VXW.T.W.W.T.T.W.Y.W.2X@.r.r.r.@.@.r.1.r.r.r.|.A.A.9Xx  Xm.<X<Xr.t.r.r.r.",
"g x 1.r.N pXZX3X{.N =.BX,XC.V t.Z 4.4.g x x k x Z #.^.ZXCXVXVXZXAXZXW.VXT.).7Xr.r.r.@.@.r.x x B r.r.$.4XW.8Xx $.D.pX&Xr.r.r.r.r.",
"x f f x k >.x.O.s k +X_  ...u t t t t q t q t t t }.U ] z.z.z.[ U U ] ~ ] [ ` t t t t t q t t $ t t c J U 5 u a =.} n t t t t t ",
"p f p f x %.T.,.v t '.v.*.XX; q $ $ q $ $ $ $ t ;  .Y U P U U Y Y L L L L L I > $ $ # $ # # # @ # @ 2 H ` ..4 $ < < - # $ t : t ",
"k k f x f @XI.b.}.p s &.m.].t 0 $ q t % q $ $ : 1 ! U L U U P L I U Y W Q Y U ! ; # $ # @ # # $ $ $ 1 ' ..H 2 $ < Y [.t % % $ # ",
"1.r.x x f N ' z.].: t o.v.#Xc p t t q q t % t : 5 U U I F P L L U Y Y Y U I L U 5 ; $ $ q $ $ # # # 4 U ..[ `.> K Y 2 # # @ @ @ ",
"p k k x r.<XuXz.K O O oXI.S.}.t p f t q t 0 t M ' [ U U Y L U U P L U U Y ' U Q ' XX6 ; $ $ # $ $ ; 5 U 5 U 5 5 K U 6 t q % % t ",
"x x x k x =X3XB.] = 9 H C.N.8Xk t t t t c +.&.z.c.Y ' Y l.I ' U z.Y Y Q Y z.Y I Y U K 6 1 ; $ $ : t K ' {.Q XX' o.z.6 t t t : % ",
"f f f x x 8XQ.3Xl.3 = ' &.z.o.4 t t t c J z.z.c.Q Y U I Y I Y z.U ' [ ' z.z.z.Q Y Y T ] ..+Xc a t 1 &.' `...` =...` 6 t $ $ $ $ ",
"g f f x x m Q.,.m.b.'.m.&.` ~ `.t t n '.z.Q z.T T z.U L Y z.z.x.Q v.[ z.Q v.z.z.z.z.T z.[ [ ' 5 n }.' o.oX} } ].` o.6 t t t q $ ",
"x x r.y.a.rX6X).3XR.A.B.S.*XN.,XN N oXY.I.I.U.I.v.N.c.N.v.U.N.I.R.T.T.pX3XF.W.W.W.W.W.VXR.L.L.L.Q.5XL.>.L.Q.8X&XL.=Xx x x k k x ",
"A S t.y.y.a.;XVX/.wXH.R.G.:XuX,X*X;.F v.I.U.N.v.V.I.v.v.U.N.U.U.W.W.5XV @.-X/.W.VXVXVXVXVXVXW.R.Q.pXT.3XF.3X<X<XH. Xx 1.x x x x ",
"Z x x y.t.y.N F.CX<X8XH.C.B.U.U.N.N.Y N.U.N.v.v.N.<X9Xm.U.U.U.U.CXF.-Xt.Z V A.VXVXW.W.W.W.T.W.W.pX/.F.=X@XW.9XA.<XN 1.r.x x k k ",
"1.x x r.y.y.1.=XW.A.qXH.m.<XB.U.N.I.I.N.I.U.N.N.=Xp c :XN.N.v.U.U.F.-Xr.r.>.VXCXCXVXW.qXW.W.^.5X9XW.<X@.2XW.<X/.8Xx Z f.f.5.x x ",
"Z x x x x y.t.V 7XBX,.-.N.{.n <X,.:.%.$XS.U.U.} }.f p o.U.N.I.N.N.Y.&Xx 4XR.W.W.U.U.R.%XW.Y.;X|.<XR.8X$.pX/.3X9XN x 0./ x 5.x k ",
"Z Z 5.5.f.y.y.r.&XuXU.F.uX%Xf +XT ` c t }.v.U.m.n t y =.v.z.v.Y.v.I.3X4XVXW.F.wX9XU.uXQ.Y.5XC &XH.F.V #.B.uX<Xm x 1.w.Z 5.0.x x ",
"t.a.g.4.f.f.f.t.1.@XuXCX^.*X|.n :.x.+.f N C.N.R.].t t *.v.N.m.8X8X5XA.U./.6X&XN V 7XF.^.wXB r.9XVX<X;X5XAXqX#.r.4.g.0.Z Z r.1.Z ",
"y.gX4.4.4.t.gXy.1.1.`.<XY.I.:.%X%Xx.} B g +.U.U.<Xa k ,XU.U.=.%X=.v.Y.,.<X-Xs.i.$XA.Q.;XN t.r.<.Q.-X3X<.D.V y.t.y.jX5.1.Z 1.x x ",
"1.e.4.4.a.4.0.e t g g |.uXaXY.I.m.O.x.O.k |.3X/.pX-X-XwXVXU.F.U./.1X8X/.VXuX0X(.VXfXpX0Xt.t.;XpXfX(.sXVX5Xy.y.y.a.bXa.t.t.t.1.1.",
"1.j 7.7.1.g f 5.f w g V G.R.OXwXuX=XY.v.$X} } n.m.m.W.A.S.x.n.8Xm v 1.-XuXI.Z.iX0XW.uX8X;X6XpX^.dXOXA.!.i.t.t.t.t.vXt.t.4.y.s.y.",
"a.g g e j 4.t.gX4.t.Z t.9XVXF.0X#.s +.P.>.&X%.3X,.>.=X}..X:.I.:.-X$.&XuX/.pXO.:.D.W./.W.FX(.pXwX0X3XfX-Xt.t.1.r.Z gXx Z 1.1.y.y.",
"a.g x x 4.y.1.vXa.t.Z t.t.wXAXJ.;XZ v %._ +Xk t b x.:.n t V ,.,.2XF.W.Q.2X|.n OXW.6X&X-X0XpXVXwXF.!.;Xt.y.t.4.t.4.w.4.Z Z Z 1.r.",
"a.g t.Z 4.y.Z gX4.Z Z A 8.Z 9XVX^.4X-X8X} n.c s C @X{ D.-XpXZ.Y.^./.7X8X;Xr.@X^.J.;Xu.r.1XVX/./.2XB 1.t.y.a.1.1.1.0.7.Z Z Z x x ",
"y.Z S Z y.4.4.gXA 4.4.A 4.4.t.+XD.I.W.<.D.pX3XD.C.n.Q.U.A.1X7X=X%X<./.R.D.dX4XpX1XiXiXaXAXVX2X-Xr.t.a.a.t.a.a.1.t.f.w.1.1.t.t.1.",
"1.x A Z p.8.cX7.t.4.Z g Z 4.4.g l |.$X,.D./.Z.Z.F.pX<X&X/.VX-.qXr.r.B m <XpX/.T.(.S.S.VXFXwXr.t.y.t.y.y.t.s.y.r.t.y.vXt.r.r.t.1.",
"% k Z f j 5.7.g x f f t w t w w w 0 q q ; > &.m. .s k t a O.[ ]  .M b }. .} %X XXXC.v...}.s x ( | x x x x x r.k k f 1.1.k k f f ",
"k x f t f w.l f f t q 0 q q 0 $ 0 0 $ & & o - ..U ~ 4 2 ; , 2 , <  .J ~ ~ 5 ! z.' &.'.2 t q $ $ q t t t t t % t $ $ q 2.p t $ $ ",
"f x f p w.1.1.5.1.^ ^ 2.2.9.6.^ f e e p $ & # - 2 5 F F < < < < ! Y ] o.#X-.,.<X%X4 t q p t j 9.0.0.0.0.q.0.5./ f p p ^ 6.t p t ",
"p x f 5.e.w.w.e.e.6.1.E j r r e w r j 2.9.w q 0 $ 2 , 2 5  ... .J XX1 t p s f p f k p p 1.q.1.^ j j f f f j / 9.w.q.9./ 0.5.p s ",
"q w 1.w.w.2.x l f f t t w q 0 0 $ $ $ $ E q $ $ $ $ $ $ ; > ; ; $ $ $ $ $ 0 0 0 t f p t 5.1.p p p t p p s p p p l l / 5.q.w./ p ",
"f p w.1.f k x x x p t q 0 q 0 $ + l $ q r $ $ $ $ $ $ $ $ $ 0 $ $ $ 0 $ $ $ 0 $ t t f p 6.5.p / f p p p p p p s s k x @.x 9.2.p ",
"t w p p p f f p t 0 q w w q 0 0 $ E l ^ w 0 0 $ + + + o + + $ $ & + $ $ $ $ $ $ t t t p p 6.5.2.p p t p p p p p k s k f k f k t ",
"t y # t p q q q q 0 w w 0 q $ $ & $ $ 0 $ $ $ + $ + + + + + + + + + + + + $ $ & $ $ $ t t q q t q q q t t t q t p p t t p t t t ",
"o X X X X X X X o o + o o X X X X X o X . . .   . X X X X X X X X X X o o o o o o o X o o X o o # $ # + o o o o o o o o o o o o "
};
